<svg fill="none" height="512" viewBox="0 0 24 24" width="512" xmlns="http://www.w3.org/2000/svg"><path clip-rule="evenodd" d="m5.64596 7.06053c-.19526-.19527-.19526-.51184 0-.7071l.70711-.70711c.19527-.19526.51185-.19526.70711 0l4.93932 4.93918 4.9391-4.93917c.1953-.19526.5119-.19527.7071-.00001l.7071.7071c.1953.19526.1953.51185 0 .70711l-4.9391 4.93927 4.9394 4.9392c.1952.1953.1952.5119 0 .7071l-.7071.7071c-.1953.1953-.5119.1953-.7072 0l-4.9393-4.9392-4.93916 4.9392c-.19526.1953-.51184.1953-.7071 0l-.70712-.7071c-.19526-.1952-.19526-.5118 0-.7071l4.93918-4.9392z" fill="rgb(0,0,0)" fill-rule="evenodd"/></svg>