<svg width="167" height="56" viewBox="0 0 167 56" fill="none" xmlns="http://www.w3.org/2000/svg">
<path d="M30.8651 30.0603C30.8737 30.9407 30.5861 31.4573 29.8229 31.8903C26.6024 33.7288 23.416 35.6338 20.2097 37.4955C18.9084 38.2517 18.5155 38.0237 18.5098 36.5199C18.4955 32.7706 18.4813 29.0213 18.5212 25.2691C18.5326 24.3888 18.2564 23.8577 17.4818 23.4392C15.9527 22.5155 14.1104 21.3899 12.3079 20.3191C12.3079 16.0675 12.3051 12.1277 12.3079 8.19082C12.3108 6.29451 12.6382 6.1069 14.2755 7.06516C19.4096 10.064 24.5323 13.086 29.6806 16.056C30.5206 16.5409 30.8879 17.072 30.8708 18.088C30.811 22.0797 30.8253 26.0686 30.8651 30.0603Z" fill="#00AF74"/>
<path d="M12.3696 22.1907C12.3667 30.6996 12.3696 39.2084 12.3639 47.7201C12.3639 49.7463 12.0934 49.9079 10.382 48.8804C7.28108 47.0216 4.20292 45.1224 1.08205 43.3012C0.273361 42.8278 0 42.2765 0 41.3443C0.0313226 32.6421 0.017085 23.9398 0.0227801 15.2376C0.0227801 13.5318 0.350243 13.3471 1.84234 14.2159C5.24796 16.1901 8.64219 18.1817 12.3069 20.3204C12.324 20.7332 12.3724 21.6943 12.3696 22.1907Z" fill="#17462E"/>
<path d="M58.0761 27.754C59.5314 28.0253 60.7278 28.753 61.6651 29.937C62.6024 31.121 63.0711 32.4777 63.0711 34.007C63.0711 35.3883 62.7258 36.6093 62.0351 37.67C61.3691 38.706 60.3948 39.52 59.1121 40.112C57.8294 40.704 56.3124 41 54.5611 41H43.4241V15.174H54.0801C55.8314 15.174 57.3361 15.4577 58.5941 16.025C59.8768 16.5923 60.8388 17.3817 61.4801 18.393C62.1461 19.4043 62.4791 20.5513 62.4791 21.834C62.4791 23.3387 62.0721 24.5967 61.2581 25.608C60.4688 26.6193 59.4081 27.3347 58.0761 27.754ZM48.6041 25.83H53.3401C54.5734 25.83 55.5231 25.5587 56.1891 25.016C56.8551 24.4487 57.1881 23.647 57.1881 22.611C57.1881 21.575 56.8551 20.7733 56.1891 20.206C55.5231 19.6387 54.5734 19.355 53.3401 19.355H48.6041V25.83ZM53.8211 36.782C55.0791 36.782 56.0534 36.486 56.7441 35.894C57.4594 35.302 57.8171 34.4633 57.8171 33.378C57.8171 32.268 57.4471 31.4047 56.7071 30.788C55.9671 30.1467 54.9681 29.826 53.7101 29.826H48.6041V36.782H53.8211ZM76.3015 41.333C74.3282 41.333 72.5522 40.9013 70.9735 40.038C69.3948 39.15 68.1492 37.9043 67.2365 36.301C66.3485 34.6977 65.9045 32.8477 65.9045 30.751C65.9045 28.6543 66.3608 26.8043 67.2735 25.201C68.2108 23.5977 69.4812 22.3643 71.0845 21.501C72.6878 20.613 74.4762 20.169 76.4495 20.169C78.4228 20.169 80.2112 20.613 81.8145 21.501C83.4178 22.3643 84.6758 23.5977 85.5885 25.201C86.5258 26.8043 86.9945 28.6543 86.9945 30.751C86.9945 32.8477 86.5135 34.6977 85.5515 36.301C84.6142 37.9043 83.3315 39.15 81.7035 40.038C80.1002 40.9013 78.2995 41.333 76.3015 41.333ZM76.3015 36.819C77.2388 36.819 78.1145 36.597 78.9285 36.153C79.7672 35.6843 80.4332 34.9937 80.9265 34.081C81.4198 33.1683 81.6665 32.0583 81.6665 30.751C81.6665 28.8023 81.1485 27.31 80.1125 26.274C79.1012 25.2133 77.8555 24.683 76.3755 24.683C74.8955 24.683 73.6498 25.2133 72.6385 26.274C71.6518 27.31 71.1585 28.8023 71.1585 30.751C71.1585 32.6997 71.6395 34.2043 72.6015 35.265C73.5882 36.301 74.8215 36.819 76.3015 36.819ZM95.9742 23.684C96.6402 22.5987 97.5035 21.7477 98.5642 21.131C99.6495 20.5143 100.883 20.206 102.264 20.206V25.645H100.895C99.2672 25.645 98.0339 26.0273 97.1952 26.792C96.3812 27.5567 95.9742 28.8887 95.9742 30.788V41H90.7942V20.502H95.9742V23.684ZM104.421 30.677C104.421 28.605 104.828 26.7673 105.642 25.164C106.481 23.5607 107.616 22.3273 109.046 21.464C110.477 20.6007 112.068 20.169 113.819 20.169C115.151 20.169 116.422 20.465 117.63 21.057C118.839 21.6243 119.801 22.389 120.516 23.351V13.62H125.77V41H120.516V37.966C119.875 38.9773 118.975 39.7913 117.815 40.408C116.656 41.0247 115.312 41.333 113.782 41.333C112.056 41.333 110.477 40.889 109.046 40.001C107.616 39.113 106.481 37.8673 105.642 36.264C104.828 34.636 104.421 32.7737 104.421 30.677ZM120.553 30.751C120.553 29.493 120.307 28.42 119.813 27.532C119.32 26.6193 118.654 25.9287 117.815 25.46C116.977 24.9667 116.076 24.72 115.114 24.72C114.152 24.72 113.264 24.9543 112.45 25.423C111.636 25.8917 110.97 26.5823 110.452 27.495C109.959 28.383 109.712 29.4437 109.712 30.677C109.712 31.9103 109.959 32.9957 110.452 33.933C110.97 34.8457 111.636 35.5487 112.45 36.042C113.289 36.5353 114.177 36.782 115.114 36.782C116.076 36.782 116.977 36.5477 117.815 36.079C118.654 35.5857 119.32 34.895 119.813 34.007C120.307 33.0943 120.553 32.009 120.553 30.751ZM149.884 30.307C149.884 31.047 149.835 31.713 149.736 32.305H134.751C134.875 33.785 135.393 34.9443 136.305 35.783C137.218 36.6217 138.34 37.041 139.672 37.041C141.596 37.041 142.965 36.2147 143.779 34.562H149.366C148.774 36.5353 147.64 38.1633 145.962 39.446C144.285 40.704 142.225 41.333 139.783 41.333C137.81 41.333 136.034 40.9013 134.455 40.038C132.901 39.15 131.68 37.9043 130.792 36.301C129.929 34.6977 129.497 32.8477 129.497 30.751C129.497 28.6297 129.929 26.7673 130.792 25.164C131.656 23.5607 132.864 22.3273 134.418 21.464C135.972 20.6007 137.761 20.169 139.783 20.169C141.732 20.169 143.471 20.5883 145 21.427C146.554 22.2657 147.751 23.462 148.589 25.016C149.453 26.5453 149.884 28.309 149.884 30.307ZM144.519 28.827C144.495 27.495 144.014 26.4343 143.076 25.645C142.139 24.831 140.992 24.424 139.635 24.424C138.353 24.424 137.267 24.8187 136.379 25.608C135.516 26.3727 134.986 27.4457 134.788 28.827H144.519ZM158.845 23.684C159.511 22.5987 160.375 21.7477 161.435 21.131C162.521 20.5143 163.754 20.206 165.135 20.206V25.645H163.766C162.138 25.645 160.905 26.0273 160.066 26.792C159.252 27.5567 158.845 28.8887 158.845 30.788V41H153.665V20.502H158.845V23.684Z" fill="#17462E"/>
</svg>
